Patient4_TMGait_0pt6_02_right_31_EMG.mot
version=1
nRows=23
nColumns=33
inDegrees=no
endheader
time	1LAddLong	2LGlutMax	3LGlutMed	4LIliopsoas	5LSemiMemb	6LBicFemLong	7LRecFem	8LVastMed	9LVastLat	10LGasMed	11LTibAnt	12lTibPost	13LPeroneusLong	14LSol	15LExtDigLong	16LFlexDigLong	17RAddLong	18RGlutMax	19RGlutMed	20RIliopsoas	21RSemiMemb	22RBicFemLong	23RRecFem	24RVastMed	25RVastLat	26RGasMed	27RTibAnt	28RTibPost	29RPeroneusLong	30RSol	31RExtDigLong	32RFlexDigLong
38.563	0.023956	0.005188	-0.019073	0.021362	0.06546	-0.021667	0.075073	-0.007324	0.004578	0.035095	-0.092773	-0.001984	-0.068359	-0.00946	-0.063019	-0.000458	0.12405	-0.10834	-0.076752	-0.081177	-0.040894	0.014801	-0.023956	-0.060425	0.004578	-0.002289	-0.25452	-0.00351	0.50369	-0.061646	-0.003204	-0.013123
38.564	0.025787	0.024567	-0.033264	0.010376	0.06897	-0.37231	0.054779	-0.007019	-0.007629	0.069275	-0.07843	0.007935	-0.022278	-0.009308	-0.024414	-0.000458	0.15793	-0.095215	-0.056915	0.032196	-0.040131	0.024567	-0.03006	-0.097809	0.012817	-0.009155	0.084534	-0.002747	0.58518	0.027008	0.00885	-0.001831
38.565	0.013123	0.022125	-0.029907	0.021057	0.046082	-0.40146	0.072327	0.003357	-0.03067	0.046234	-0.05722	0.012054	0.032959	0.057068	0.023499	-0.005188	0.096436	-0.10056	-0.079041	0.040588	-0.054932	0.013123	-0.028381	-0.096741	0.018921	-0.003204	0.51025	-0.004578	-0.30609	-0.019226	-0.003662	-0.00824
38.566	0.006256	-0.001526	-0.016937	0.018005	0.035858	-0.298	0.072174	0.008698	-0.027771	0.008087	-0.01297	-0.006714	0.17532	0.036621	0.001068	0.006409	0.018158	-0.12634	-0.11948	0.007477	-0.055389	0.021667	-0.015717	-0.08316	0.032654	-0.002136	0.62042	-0.001984	-0.89035	-0.10452	-0.001678	-0.007172
38.567	-0.001221	-0.009003	0.008698	0.00473	0.025787	-0.27847	0.071716	0.000305	-0.006561	-0.14374	-0.032654	-0.02182	0.049591	-0.019073	-0.008698	0.005035	-0.049438	-0.082092	-0.16846	-0.013428	-0.036621	0.01358	0.007172	-0.088196	0.026703	-0.006561	0.71838	-0.00351	-0.65491	-0.053253	-0.005341	-0.003357
38.568	-0.00473	0.00351	0.009766	0.006866	-0.004578	-0.13428	0.065155	0.00473	-0.011597	-0.29678	-0.028687	-0.01236	0.11307	-0.07782	0.013275	0.050659	-0.074463	-0.081329	-0.14297	-0.004883	-0.026093	0.003052	0.030365	-0.093536	0.012512	-0.00412	0.13596	-0.005493	-0.002136	-0.046234	-0.005188	-0.006256
38.569	-0.00351	0.032806	0.000458	-0.002899	-0.04303	0.1239	0.076752	0.006714	-0.009003	-0.019226	-0.009308	-0.00473	0.19028	-0.009003	0.020905	0.080261	-0.095978	-0.06424	-0.14633	0.000305	-0.005493	-0.013428	0.054779	-0.095978	-0.004272	-0.002441	-0.78751	-0.004425	0.57098	-0.072937	-0.003357	0.000458
38.57	-0.014191	0.01709	-0.012817	-0.011597	-0.059662	0.33157	0.071259	0.006409	0.002289	0.10559	-0.010834	-0.005798	0.25223	0.14969	0.042572	-0.32852	-0.063934	-0.073395	-0.09903	-0.001678	-0.000458	-0.019073	0.10178	-0.093689	-0.016479	-0.002747	-0.60577	-0.009003	-0.069122	-0.13901	-0.005188	0.000153
38.571	-0.00061	0.002899	-0.002747	-0.007629	-0.058746	0.37964	0.075226	0.002289	-0.000153	0.2066	0	0.11475	0.25192	0.20294	0.034485	-0.014343	-0.001831	-0.032654	-0.1619	-0.026245	0.001526	-0.007782	0.13489	-0.14496	-0.009918	0.000458	-0.4425	-0.010071	-0.45487	-0.1001	-0.000458	-0.002441
38.572	0.010071	-0.01236	-0.014801	-0.004578	-0.00885	0.2626	0.089569	-0.000153	-0.021973	0.67001	-0.010223	0.45837	0.081635	0.15717	0.040894	0.15213	0.04364	-0.063477	-0.10025	0.021667	-0.067444	0.027618	0.082092	-0.10895	0.008545	-0.00412	-0.224	-0.007629	-0.73502	0.03479	-0.004883	-0.003052
38.573	0.013428	0.017853	-0.040741	0.011139	0.020447	0.13611	0.1294	-0.000763	-0.018463	0.97565	-0.033722	-0.36911	-0.13062	0.15518	0.073395	0.076752	0.033112	-0.027313	-0.15579	0.007477	-0.072174	0.048828	0.086365	-0.040588	0	-0.008698	-0.16495	-0.008545	-0.35217	0.10834	-0.002441	-0.00946
38.574	0.011139	-0.007172	-0.020752	0.014038	-0.023041	-0.001373	0.16617	-0.000763	-0.02121	0.3215	-0.034485	0.14938	-0.21973	0.076904	0.036316	0.046387	0.00473	0.006866	-0.17899	0.002594	-0.063324	0.028687	0.042725	-0.052185	-0.002289	-0.007172	-0.16449	-0.006409	0.29892	0.25772	-0.002289	-0.009918
38.575	0.001984	-0.005646	-0.014038	0.027008	-0.010529	-0.17639	0.16403	0.008392	-0.029297	-0.001831	-0.023041	0.043182	0.13825	-0.29495	0.022278	0.023041	-0.02121	0.009766	-0.25681	-0.083466	-0.0383	-0.000916	0.063629	-0.022583	0.007172	-0.011902	-0.13275	-0.005035	0.92987	0.23651	-0.002136	-0.010681
38.576	-0.000458	-0.002899	-0.028687	0.016327	0.027771	-0.15686	0.19318	0.011749	-0.087128	-0.15076	-0.052338	-0.10178	0.29388	-0.32044	0.042419	0.014038	-0.030212	-0.044556	-0.41199	-0.13641	-0.006104	-0.000305	0.062714	0.014648	0.010071	-0.01297	-0.075073	-0.00885	0.52643	0.11063	-0.001526	-0.006561
38.577	0.001984	-0.015106	-0.028076	0.00824	0.072174	-0.14786	0.14832	0.011749	-0.12619	-0.10529	-0.027313	0.19821	-0.032349	-0.34592	0.054626	0.030823	-0.033722	0.011292	-0.56076	-0.089874	0.11337	0.025635	0.045624	0.00946	-0.000153	-0.010986	-0.058594	-0.007477	0.40146	0.0383	-0.003815	-0.001831
38.578	0.002136	-0.005951	0.006104	0.006256	0.094757	-0.062408	-0.046997	0.012817	-0.090485	-0.17838	-0.006866	0.15152	-0.33188	-0.53467	0.015259	-0.024261	-0.048828	0.019836	-0.72113	-0.073547	0.1091	0.021515	0.049438	-0.041199	0.028839	-0.009308	-0.024109	-0.002899	0.40314	-0.007172	-0.002747	-0.006714
38.579	0.014648	-0.009308	0.094757	-0.007935	0.032501	0.037842	-0.070343	0.016327	-0.058594	-0.26016	0.005646	-0.015411	-0.30777	-0.33554	-0.069122	-0.061188	-0.062561	-0.005493	-0.35568	-0.15839	0.084686	0.02655	0.064697	-0.032196	0.021362	-0.010681	0.005646	-0.004272	0.24002	0.016479	-0.00061	-0.011749
38.58	0.006409	-0.027313	0.06958	0.000153	0.014954	-0.11078	-0.035706	0.006256	-0.026093	-0.24246	-0.00351	-0.072937	-0.26352	-0.29297	-0.022888	-0.044861	-0.06958	-0.050049	-0.029144	-0.26855	0.008545	0.035706	0.059204	-0.037994	0.018311	-0.010376	-0.017853	-0.005798	0.014191	-0.0177	-0.003357	-0.005035
38.581	0.009003	-0.040283	0.028534	0.010223	0.018616	-0.24841	-0.013428	-0.00061	0.17212	-0.23377	-0.005493	-0.039825	0.29434	-0.38086	0.032043	-0.027771	-0.06073	-0.033417	0.5069	-0.12329	-0.073547	0.051727	0.043182	-0.043793	0.021057	-0.011292	-0.003967	-0.004883	-0.1915	-0.030518	-0.00412	-0.005341
38.582	0.010223	0.013428	0.026398	0.005341	-0.014343	-0.066376	0.019989	-0.018768	0.3096	-0.18585	-0.011139	-0.13229	0.15091	-0.1738	-0.056763	-0.007782	-0.062408	-0.062561	0.68253	0.11139	-0.06897	0.025635	0.043793	-0.016479	0.011902	-0.011597	0.047455	-0.00412	-0.28091	-0.024414	-0.001221	-0.007172
38.583	-0.00412	-0.013885	0.056152	0.003204	-0.000458	0.007629	0.11139	-0.011597	0.11063	-0.13657	-0.006104	-0.10101	0.003052	0.031128	-0.065155	0.002289	-0.065155	-0.14954	0.069427	0.3122	-0.088959	-0.025024	0.005188	-0.033417	0.010986	-0.013123	0.053558	-0.005035	-0.14084	-0.045929	-0.005493	-0.003662
38.584	0.002441	-0.027313	0.05188	0.008545	0.013275	0.031586	0.10269	-0.00412	0.011902	-0.12177	0.005035	-0.074463	0.084076	0.18066	-0.078125	0	-0.050201	-0.09491	-0.6778	0.47318	-0.075531	-0.0383	0.063629	-0.039368	0.000916	-0.012207	0.045471	-0.00351	-0.091248	-0.065765	-0.004272	0.009613
38.585	0.007782	-0.011292	0.061798	0.012054	0.033722	0.090942	0.1297	-0.009155	0.034027	-0.059052	0.004272	-0.049133	0.18601	0.059509	-0.11383	0.011597	-0.007629	-0.09491	-1.0024	0.38437	-0.084991	-0.049744	0.045624	-0.032806	-0.001678	-0.01358	0.065002	-0.002747	-0.070038	-0.072021	-0.00412	0.000763
